# xmcd
#
# Track frame offsets: 
#        205
#        18412
#        37024
#        54929
#        77048
#        97274
#        119402
#        144023
#        160854
#        179830
#        209320
#        224352
#        243444
#        258111
#
# Disc length: 3629 seconds
#
# Revision: 7
# Processed by: cddbd v1.5.2PL0 Copyright (c) Steve Scherf et al.
# Submitted via: ExactAudioCopy v1.1
#
DISCID=c30e2b0e
DTITLE=Arid - Live
DYEAR=2003
DGENRE=Belgian Rock
TTITLE0=All I Did (Was Get Close To You)
TTITLE1=Marooned
TTITLE2=You Are
TTITLE3=Too Late Tonight
TTITLE4=Silent Reproach
TTITLE5=Me And My Melody
TTITLE6=Little Things Of Venom
TTITLE7=Body Of You
TTITLE8=I Wonder How Come
TTITLE9=Dearly Departed
TTITLE10=World Weary Eyes
TTITLE11=At The Close Of Every Day
TTITLE12=Everlasting Change
TTITLE13=Elegy
EXTD=All songs written and performed by Arid\n\nJasper Steverlinck: vo
EXTD=cals and guitars\nDavid Du Pré: guitars\nSteven Van Havere: drums
EXTD=\nFilip Ros: bass\nGuest musician: Nicolaas Willems: piano and ke
EXTD=yboards\n\nRecorded during the Get Close To You tour, October 200
EXTD=3\n\nwww.aridcentral.com\n YEAR: 2003
EXTT0=
EXTT1=
EXTT2=
EXTT3=
EXTT4=
EXTT5=
EXTT6=
EXTT7=
EXTT8=
EXTT9=
EXTT10=
EXTT11=
EXTT12=
EXTT13=
PLAYORDER=
